<?xml version="1.0" standalone="no"?>
<!DOCTYPE svg PUBLIC "-//W3C//DTD SVG 20010904//EN"
 "http://www.w3.org/TR/2001/REC-SVG-20010904/DTD/svg10.dtd">
<svg version="1.0" xmlns="http://www.w3.org/2000/svg"
 width="512.000000pt" height="512.000000pt" viewBox="0 0 512.000000 512.000000"
 preserveAspectRatio="xMidYMid meet">
<metadata>
Created by potrace 1.11, written by Peter Selinger 2001-2013
</metadata>
<g transform="translate(0.000000,512.000000) scale(0.100000,-0.100000)"
fill="#000000" stroke="none">
<path d="M2525 4981 c-9 -7 -48 -29 -225 -124 -261 -140 -714 -385 -750 -405
-25 -13 -76 -41 -115 -62 -38 -21 -178 -96 -310 -167 -132 -72 -269 -146 -305
-165 -36 -20 -85 -47 -110 -60 -25 -14 -81 -44 -125 -68 -44 -23 -122 -65
-173 -92 l-92 -50 0 -1203 0 -1204 28 -14 c15 -7 59 -31 97 -52 271 -146 685
-370 760 -410 50 -26 95 -51 100 -55 6 -4 57 -32 116 -63 58 -31 134 -72 170
-92 35 -19 87 -47 114 -61 28 -13 57 -29 65 -34 8 -5 56 -31 105 -58 278 -150
314 -170 500 -270 77 -41 146 -79 152 -84 12 -9 51 9 258 122 28 15 86 47 130
70 44 23 103 56 132 71 86 48 143 78 263 141 63 33 120 64 125 68 6 4 44 25
85 47 41 23 217 117 390 211 173 93 347 186 385 207 39 21 84 45 100 55 17 10
66 37 110 60 44 23 122 65 173 92 l92 50 0 1203 0 1203 -157 85 c-162 87 -730
393 -838 452 -33 18 -139 75 -235 127 -96 53 -209 113 -250 135 -41 22 -120
65 -175 95 -55 30 -149 81 -210 113 -60 32 -114 61 -120 65 -14 10 -241 130
-247 130 -2 0 -8 -4 -13 -9z"/>
</g>
</svg>
